Patient4_TMGait_0pt3_01_right_18_GRF.mot
version=1
nRows=26
nColumns=19
inDegrees=no
endheader
time	F1x	F1y	F1z	M1x	M1y	M1z	F2x	F2y	F2z	M2x	M2y	M2z	EC1x	EC1y	EC1z	EC2x	EC2y	EC2z
32.57	10.8811	744.0061	57.7462	-307.9194	-53.5922	734.1307	-2.385	1.6815	3.3999	0.33859	-1.1606	-3.4623	-0.0592	0.0182	-0.0073	-0.0462	0.0165	0.9585
32.5895	7.4041	761.496	58.2947	-315.4967	-54.6357	749.8798	-1.6684	1.6662	2.2912	0.41056	-0.73772	-1.6862	-0.0592	0.0182	-0.0073	-0.0462	0.0165	0.9585
32.609	4.1501	783.8413	58.9312	-325.1679	-55.6951	770.0435	-1.0566	1.6695	1.3483	0.48077	-0.38222	-0.15937	-0.0592	0.0182	-0.0073	-0.0462	0.0165	0.9585
32.6285	1.4433	810.1031	59.6058	-336.5157	-56.6372	793.6519	-0.58961	1.6988	0.6274	0.54566	-0.11146	1.0444	-0.0592	0.0182	-0.0073	-0.0462	0.0165	0.9585
32.648	-0.48628	838.3704	60.2833	-348.7047	-57.3504	818.7934	-0.26868	1.751	0.12848	0.60315	0.075693	1.9237	-0.0592	0.0182	-0.0073	-0.0462	0.0165	0.9585
32.6675	-1.5138	865.7311	60.9352	-360.4765	-57.7514	842.6217	-0.073747	1.81	-0.17868	0.64901	0.18942	2.5095	-0.0592	0.0182	-0.0073	-0.0462	0.0165	0.9585
32.687	-1.604	888.5504	61.5296	-370.2749	-57.7794	861.6439	0.02416	1.8413	-0.3357	0.67367	0.24366	2.8328	-0.0592	0.0182	-0.0073	-0.0462	0.0165	0.9585
32.7065	-0.79162	903.1308	61.9961	-376.532	-57.3629	872.3585	0.054658	1.7952	-0.38566	0.66257	0.2546	2.9092	-0.0592	0.0182	-0.0073	-0.0462	0.0165	0.9585
32.726	0.8407	906.5703	62.2098	-378.0332	-56.4	872.0684	0.043459	1.6036	-0.36481	0.59571	0.23436	2.7235	-0.0592	0.0182	-0.0073	-0.0462	0.0165	0.9585
32.7455	3.1972	897.4746	62.0219	-374.2157	-54.777	859.54	0.013583	1.1844	-0.29921	0.44859	0.18886	2.2294	-0.0592	0.0182	-0.0073	-0.0462	0.0165	0.9585
32.765	6.1822	876.3952	61.31	-365.3405	-52.4081	835.4009	-0.016637	0.44792	-0.20533	0.19366	0.12069	1.36	-0.0592	0.0182	-0.0073	-0.0462	0.0165	0.9585
32.7845	9.6978	845.8545	60.0321	-352.4917	-49.2864	802.1328	-0.028059	-0.68474	-0.092665	-0.19416	0.026637	0.047565	-0.0592	0.0182	-0.0073	-0.0462	0.0165	0.9585
32.804	13.6658	809.9123	58.2559	-337.3865	-45.5012	763.6268	-0.00075255	-2.2522	0.032244	-0.72607	-0.099538	-1.7371	-0.0592	0.0182	-0.0073	-0.0462	0.0165	0.9585
32.8235	18.0302	773.3866	56.15	-322.0469	-41.2265	724.4417	0.086146	-4.2137	0.1643	-1.3862	-0.26166	-3.9451	-0.0592	0.0182	-0.0073	-0.0462	0.0165	0.9585
32.843	22.74	740.9484	53.9464	-308.4241	-36.6966	688.965	0.25284	-6.3946	0.29819	-2.1151	-0.46004	-6.3862	-0.0592	0.0182	-0.0073	-0.0462	0.0165	0.9585
32.8625	27.7327	716.2753	51.8986	-298.047	-32.1732	660.646	0.51268	-8.4162	0.42147	-2.7858	-0.68349	-8.6521	-0.0592	0.0182	-0.0073	-0.0462	0.0165	0.9585
32.882	32.9139	701.4064	50.2259	-291.7543	-27.9021	641.4235	0.86413	-9.6179	0.51096	-3.1775	-0.90236	-10.0273	-0.0592	0.0182	-0.0073	-0.0462	0.0165	0.9585
32.9015	38.1371	696.3627	49.0798	-289.5374	-24.0936	631.3954	1.2876	-8.9853	0.52265	-2.95	-1.057	-9.4035	-0.0592	0.0182	-0.0073	-0.0462	0.0165	0.9585
32.921	43.1875	699.133	48.5273	-290.5341	-20.9166	628.8347	1.7385	-5.109	0.3876	-1.6297	-1.0518	-5.2409	-0.0592	0.0182	-0.0073	-0.0462	0.0165	0.9585
32.9405	47.7668	706.0287	48.5307	-293.1786	-18.4822	630.5398	2.1291	3.7853	0.013618	1.3784	-0.75061	4.4045	-0.0592	0.0182	-0.0073	-0.0462	0.0165	0.9585
32.96	51.4798	712.3146	48.9435	-295.4703	-16.85	632.4224	2.3099	19.6798	-0.70963	6.737	0.026222	21.7064	-0.0592	0.0182	-0.0073	-0.0462	0.0165	0.9585
32.9795	53.894	713.1272	49.5192	-295.3699	-16.0097	630.3102	2.0561	44.423	-1.8982	15.0615	1.4891	48.6963	-0.0592	0.0182	-0.0073	-0.0462	0.0165	0.9585
32.999	54.6416	704.456	49.9193	-291.221	-15.8449	620.7779	1.0471	79.1476	-3.647	26.7246	3.8523	86.6343	-0.0592	0.0182	-0.0073	-0.0462	0.0165	0.9585
33.0185	53.5207	683.8373	49.7595	-282.0473	-16.1272	601.7074	-1.27	123.5558	-6.0162	41.6162	7.3631	135.2173	-0.0592	0.0182	-0.0073	-0.0462	0.0165	0.9585
33.038	50.6211	650.712	48.6982	-267.6928	-16.5339	572.5415	-5.4205	175.4053	-9.0526	58.9683	12.2352	192.0021	-0.0592	0.0182	-0.0073	-0.0462	0.0165	0.9585
33.0575	46.3868	606.5198	46.5557	-248.8337	-16.7187	534.3299	-11.0748	230.9398	-12.8547	77.4898	18.444	252.8077	-0.0592	0.0182	-0.0073	-0.0462	0.0165	0.9585
